# xmcd CD database file generated by GCD 2.96
# 
# Track frame offsets:
#       150
#       9601
#       19045
#       29226
#       35074
#       47942
#       55020
#       64183
#       75389
#       86094
#       101515
#       110788
#       124923
#       131980
#       138377
#       148338
#       161878
#       171347
#       180603
#       186604
#       194951
#       201993
#       211303
#       225029
#       239161
#       253717
#       261506
#       276024
#       298203
# 
# Disc length: 4310 seconds
# 
# Revision: 0
# Processed by: cddbd v1.4b42PL1 Copyright (c) Steve Scherf et al.
# Submitted via: GCD 2.96
# 
DISCID=db10d41d
DTITLE=Bárány A. - Jován - Dark Blue #1
DYEAR=1900
DGENRE=
TTITLE0=Blair - Have Fun Go Mad
TTITLE1=4 The Cause - Ain't No Sunshine
TTITLE2=Blackstreat and MYA - Take Me There
TTITLE3=PM Dawn - Gotta Be... Movin' On Up
TTITLE4=Lisa Stansfield - Real Thing
TTITLE5=Patti Labelle - When You Talk About Love
TTITLE6=Brook Russel and Mr. Gentleman - So Sweet
TTITLE7=Alliance Ethnik Avec Vinia - Respect
TTITLE8=Lou Bega - Trumpet Part Two
TTITLE9=Fatboy Slim - Praise You
TTITLE10=Nu Yoricau Soul feat. India - Runaway
TTITLE11=Ultra Nate - New Kind of Medicine
TTITLE12=Blacknuss - Last Night The DJ Saved My Life
TTITLE13=Monifah - Touch It
TTITLE14=Kulay - Burn
TTITLE15=Gio Bacio - Funky Groove
TTITLE16=US 3 - Cantaloop
TTITLE17=Gary Blade - Give Me Your Love
TTITLE18=Dennis Edwards - Don't Look Any Further '98
TTITLE19=Marina Ray - Donna
TTITLE20=Matt Bianco - Sunshine Day
TTITLE21=Destiny's Child - Illusion
TTITLE22=Cunnie Williams - Saturday
TTITLE23=F. Cool - Give Me Your Love
TTITLE24=Chily Hilly - Is It Love?
TTITLE25=Rose Royce - Car Wash 1998
TTITLE26=Earth Wind and Fire - September
TTITLE27=Tony! Toni! Tone! - Let's Get Down
TTITLE28=Lisa Stansfield - The Real Thing
EXTD=
EXTT0=
EXTT1=
EXTT2=
EXTT3=
EXTT4=
EXTT5=
EXTT6=
EXTT7=
EXTT8=
EXTT9=
EXTT10=
EXTT11=
EXTT12=
EXTT13=
EXTT14=
EXTT15=
EXTT16=
EXTT17=
EXTT18=
EXTT19=
EXTT20=
EXTT21=
EXTT22=
EXTT23=
EXTT24=
EXTT25=
EXTT26=
EXTT27=
EXTT28=
PLAYORDER=
